<svg width="13" height="9" viewBox="0 0 13 9" fill="none" xmlns="http://www.w3.org/2000/svg">
<path d="M12.0049 1.6666C11.9486 1.94189 11.774 2.14047 11.578 2.33252C9.53096 4.33708 7.48643 6.34436 5.44219 8.35192C5.16635 8.62286 4.84532 8.74119 4.46774 8.61116C4.33024 8.56383 4.19413 8.47787 4.09017 8.37667C3.04448 7.36038 2.00406 6.33865 0.96558 5.31502C0.545863 4.90126 0.581348 4.30743 1.03738 3.95815C1.39334 3.68558 1.89483 3.73509 2.2494 4.08219C3.05113 4.86699 3.85148 5.65342 4.65154 6.43984C4.68232 6.47031 4.70283 6.51084 4.74635 6.57259C4.79348 6.50948 4.81344 6.47385 4.84172 6.4461C6.70106 4.62053 8.56123 2.79578 10.4206 0.970213C10.6903 0.705531 11.003 0.594272 11.3764 0.709067C11.7024 0.809445 11.8973 1.03495 11.9827 1.35622C11.9891 1.38016 11.9977 1.40355 12.0052 1.42722C12.0049 1.50719 12.0049 1.5869 12.0049 1.6666Z" fill="#0052CC"/>
</svg>
